<svg xmlns="http://www.w3.org/2000/svg" width="256" height="256"><path fill="#1976D2" fill-opacity=".016" fill-rule="evenodd" d="M0 128.004v128.004l128.25-.254 128.25-.254.254-127.75L257.008 0H0zm.485.496c0 70.4.119 99.053.265 63.672s.146-92.98 0-128S.485 58.1.485 128.5"/><path fill="#1976D2" fill-opacity=".119" fill-rule="evenodd" d="M70 49.403.5 91.679v31.62L23 136.998c12.375 7.535 33.3 20.279 46.5 28.319l24 14.619 1.749-3.718c17.834-37.92 69.693-152.926 69.356-153.806-.438-1.14-20.772-13.854-23.707-14.823-.769-.254-32.673 18.563-70.898 41.814m85.622 29.847c-1.295 2.888-13.041 28.65-26.103 57.25C89.999 223.029 87 229.677 87 230.761c0 .575 6.403 4.958 14.23 9.739 10.512 6.423 14.627 8.453 15.75 7.77l70.294-42.792 68.775-41.867-.275-15.493-.274-15.493-23-13.968c-12.65-7.683-34.366-20.873-48.258-29.313S158.757 74 158.479 74c-.277 0-1.563 2.362-2.857 5.25"/><path fill="#1976D2" fill-opacity=".43" fill-rule="evenodd" d="M70.122 49.796 0 92.38v30.273l45.672 27.771c25.12 15.274 46.199 27.973 46.843 28.22.672.258 2.361-2.229 3.97-5.847 1.539-3.464 17.411-38.247 35.271-77.297s32.675-71.515 32.924-72.144c.251-.634-5.105-4.495-11.992-8.645l-12.444-7.5zm52.456 102.762c-19.711 43.183-35.668 78.666-35.459 78.852 1.592 1.411 27.598 16.883 28.381 16.884.932.002 136.504-82.289 139.25-84.522.897-.73 1.25-5.174 1.25-15.758v-14.74l-46.75-28.321c-25.713-15.576-47.668-28.902-48.791-29.614-1.963-1.246-3.404 1.691-37.881 77.219"/><path fill="#1976D2" fill-opacity=".27" fill-rule="evenodd" d="M97.5 33.554C74.4 47.599 43.028 66.607 27.784 75.795L.069 92.5l.007 15 .007 15 46.606 28.269c25.634 15.547 46.672 28.147 46.752 28 .079-.148 8.533-18.719 18.785-41.269s25.239-55.4 33.302-73 15.684-34.287 16.936-37.081l2.277-5.081-11.938-7.169c-6.566-3.943-12.245-7.165-12.62-7.16-.376.005-19.583 11.501-42.683 25.545m25.608 118.696c-19.397 42.488-35.292 77.687-35.323 78.222-.083 1.431 26.456 17.578 28.215 17.167.825-.193 29.4-17.363 63.5-38.156s65.047-39.644 68.771-41.893l6.771-4.09-.271-15.347-.271-15.347-47.5-28.885c-26.125-15.886-47.753-28.893-48.063-28.903s-16.433 34.745-35.829 77.232"/></svg>