<?xml version="1.0" encoding="utf-8"?>
<!-- Generator: Adobe Illustrator 22.0.0, SVG Export Plug-In . SVG Version: 6.00 Build 0)  -->
<svg version="1.1" id="Layer_1" xmlns="http://www.w3.org/2000/svg" xmlns:xlink="http://www.w3.org/1999/xlink" x="0px" y="0px"
	 viewBox="0 0 239 38.2" style="enable-background:new 0 0 239 38.2;" xml:space="preserve">
<style type="text/css">
	.st0{fill-rule:evenodd;clip-rule:evenodd;fill:#FFFFFF;}
</style>
<g>
	<path class="st0" d="M124.7,3l24.5,21.9h4V0.4h-3v21.4L127.1,0.4h-5.4v24.5h3V3z M113.8,24.9h3V0.4h-3V24.9z M110.2,7.9
		c0-0.9-0.1-1.7-0.2-2.5c-0.1-0.7-0.4-1.4-0.7-2c-0.3-0.6-0.8-1.1-1.3-1.5c-0.6-0.4-1.3-0.8-2.1-1.1c-0.9-0.3-1.8-0.5-3-0.6
		c-1.2-0.1-2.5-0.2-4.1-0.2h-8.3c-1.9,0-3.5,0.1-4.8,0.3c-1.3,0.2-2.4,0.6-3.2,1c-0.8,0.4-1.5,1-2,1.7c-0.5,0.7-0.8,1.5-1,2.4
		c-0.2,0.9-0.3,2-0.4,3.1c0,1.2,0,2.5,0,3.9c0,1.5,0,2.8,0,4c0,1.2,0.2,2.3,0.4,3.2c0.2,0.9,0.5,1.8,1,2.5c0.5,0.7,1.1,1.3,2,1.8
		c0.8,0.5,1.9,0.8,3.2,1c1.3,0.2,2.9,0.3,4.8,0.3h8.3c1.5,0,2.9-0.1,4.1-0.2c1.2-0.2,2.2-0.4,3-0.7c0.8-0.3,1.5-0.7,2.1-1.2
		c0.5-0.5,1-1,1.3-1.7c0.3-0.7,0.6-1.4,0.7-2.2c0.1-0.8,0.2-1.8,0.2-2.8v-4.1H94.8V15h12.3v1.6c0,0.9,0,1.6-0.1,2.3
		c-0.1,0.6-0.2,1.2-0.4,1.7c-0.2,0.5-0.5,0.9-0.9,1.2c-0.4,0.3-0.9,0.6-1.5,0.7c-0.6,0.2-1.4,0.3-2.3,0.4c-0.9,0.1-1.9,0.1-3.1,0.1
		h-8.4c-1.4,0-2.6,0-3.5-0.1c-0.9-0.1-1.7-0.3-2.4-0.5c-0.6-0.2-1.1-0.6-1.4-1.1c-0.3-0.5-0.6-1.1-0.7-1.9c-0.2-0.8-0.2-1.7-0.3-2.8
		c0-1.1,0-2.5,0-4c0-1.5,0-2.8,0-3.9c0-1.1,0.1-2,0.3-2.7c0.2-0.7,0.4-1.3,0.7-1.8c0.3-0.4,0.8-0.8,1.4-1c0.6-0.2,1.4-0.4,2.4-0.5
		c0.9-0.1,2.1-0.1,3.5-0.1h8.4c1.6,0,2.9,0,4,0.2c1.1,0.1,1.9,0.3,2.6,0.7c0.6,0.4,1.1,0.9,1.4,1.6c0.3,0.7,0.4,1.7,0.4,2.9H110.2z
		 M157.1,24.9h3.4L174,2.3l13.1,22.7h3.3L176,0.1h-4.3L157.1,24.9z M44.6,24.8h3.3L60.8,2.1l12.6,22.7h3.1L62.8,0h-4.1L44.6,24.8z
		 M23,18.1h3.2L38.6,3v21.9h3V0.4h-4.9L24.4,15L12.1,0.4h-5v24.5h3V2.3L23,18.1z M0.1,24.9h3V0.4h-3V24.9z"/>
	<path class="st0" d="M189.9,34.2c-0.2-0.1-0.3-0.2-0.6-0.3c-0.2-0.1-0.5-0.1-0.9-0.2l-0.9-0.1c-0.2,0-0.3-0.1-0.5-0.1
		c-0.2-0.1-0.3-0.1-0.4-0.2c-0.2-0.2-0.3-0.4-0.3-0.7c0-0.2,0.1-0.4,0.2-0.6c0.1-0.2,0.3-0.3,0.5-0.4c0.2-0.1,0.5-0.2,0.8-0.2
		c0.2,0,0.4,0,0.6,0.1c0.2,0,0.4,0.1,0.5,0.2c0.2,0.1,0.3,0.2,0.5,0.4l0.8-0.8c-0.3-0.4-0.7-0.6-1.1-0.8c-0.4-0.2-0.8-0.3-1.4-0.3
		c-0.5,0-1,0.1-1.4,0.3c-0.4,0.2-0.7,0.4-0.9,0.8c-0.2,0.3-0.3,0.7-0.3,1.2c0,0.6,0.2,1.1,0.6,1.5c0.3,0.3,0.8,0.5,1.5,0.6l0.9,0.1
		c0.2,0,0.4,0.1,0.5,0.1c0.1,0,0.2,0.1,0.3,0.2c0.2,0.2,0.3,0.4,0.3,0.7c0,0.4-0.1,0.6-0.4,0.8c-0.3,0.2-0.7,0.3-1.2,0.3
		c-0.3,0-0.5,0-0.8-0.1c-0.2,0-0.5-0.1-0.7-0.2c-0.2-0.1-0.4-0.3-0.6-0.4l-0.8,0.8c0.4,0.4,0.8,0.7,1.2,0.9c0.4,0.2,0.9,0.3,1.6,0.3
		c0.4,0,0.8,0,1.1-0.2c0.3-0.1,0.6-0.2,0.9-0.4c0.3-0.2,0.4-0.4,0.6-0.7c0.1-0.3,0.2-0.6,0.2-0.9C190.5,35,190.3,34.5,189.9,34.2z
		 M178,36.8h-3.5V35h3v-1.2h-3v-2.4h3.5v-1.2h-4.7v7.7h4.7V36.8z M165.6,33.6c0-0.4,0-0.8-0.1-1c0-0.3-0.1-0.6-0.2-0.9
		c-0.1-0.3-0.3-0.5-0.5-0.8c-0.5-0.5-1.1-0.7-1.9-0.7h-2.6v7.7h2.6c0.8,0,1.5-0.2,1.9-0.7c0.2-0.2,0.4-0.5,0.5-0.8
		c0.1-0.3,0.2-0.6,0.2-0.9c0-0.3,0.1-0.7,0.1-1.1V34V33.6z M164.4,35.5c0,0.3-0.2,0.6-0.3,0.8c-0.3,0.3-0.7,0.5-1.2,0.5h-1.3v-5.4
		h1.3c0.5,0,0.9,0.2,1.2,0.5c0.1,0.1,0.2,0.3,0.3,0.5c0.1,0.2,0.1,0.4,0.1,0.6c0,0.2,0,0.6,0,1C164.4,34.7,164.4,35.2,164.4,35.5z
		 M150.4,30.2h-0.9l-2.8,7.7h1.2l0.5-1.2h3l0.5,1.2h1.2L150.4,30.2z M148.8,35.6l1.2-3.5l1.1,3.5H148.8z M140.1,33.6
		c0-0.4,0-0.8,0-1c0-0.3-0.1-0.6-0.2-0.9c-0.1-0.3-0.3-0.5-0.5-0.8c-0.5-0.5-1.1-0.7-1.9-0.7h-2.6v7.7h2.6c0.8,0,1.5-0.2,1.9-0.7
		c0.2-0.2,0.4-0.5,0.5-0.8c0.1-0.3,0.2-0.6,0.2-0.9c0-0.3,0-0.7,0-1.1V34V33.6z M138.9,35.5c0,0.3-0.2,0.6-0.3,0.8
		c-0.3,0.3-0.7,0.5-1.2,0.5H136v-5.4h1.3c0.5,0,0.9,0.2,1.2,0.5c0.1,0.1,0.2,0.3,0.3,0.5c0.1,0.2,0.1,0.4,0.1,0.6c0,0.2,0,0.6,0,1
		C138.9,34.7,138.9,35.2,138.9,35.5z M127.1,30.2h-1.2v7.7h1.2V30.2z M118.4,36.8h-3.2v-6.5H114v7.7h4.4V36.8z M106.2,30.2h-1.2v7.7
		h1.2V30.2z M97,34.4c-0.2-0.3-0.5-0.6-0.8-0.7c0.2-0.1,0.3-0.2,0.5-0.3c0.1-0.1,0.3-0.3,0.3-0.5c0.1-0.2,0.1-0.4,0.1-0.7
		c0-0.4-0.1-0.8-0.3-1.1c-0.2-0.3-0.4-0.5-0.8-0.7c-0.3-0.2-0.8-0.2-1.2-0.2H92v7.7h3c0.4,0,0.8-0.1,1.2-0.3
		c0.3-0.2,0.6-0.4,0.8-0.8c0.2-0.3,0.3-0.8,0.3-1.3C97.3,35.2,97.2,34.7,97,34.4z M95.8,32.9c-0.2,0.2-0.5,0.2-0.9,0.2h-1.7v-1.8
		h1.7c0.2,0,0.5,0,0.6,0.1c0.2,0.1,0.3,0.2,0.4,0.3c0.1,0.1,0.2,0.3,0.2,0.5C96.1,32.6,96,32.8,95.8,32.9z M96.1,36.2
		c-0.1,0.2-0.2,0.3-0.4,0.4c-0.2,0.1-0.4,0.2-0.7,0.2h-1.8v-2.4H95c0.3,0,0.5,0.1,0.7,0.1c0.2,0.1,0.3,0.2,0.4,0.4
		c0.1,0.2,0.2,0.4,0.2,0.6C96.2,35.8,96.2,36,96.1,36.2z M84.3,30.2h-1.2v7.7h1.2V30.2z M74.7,34.2c-0.2-0.1-0.4-0.2-0.6-0.3
		c-0.2-0.1-0.5-0.1-0.9-0.2l-0.9-0.1c-0.2,0-0.3-0.1-0.5-0.1c-0.2-0.1-0.3-0.1-0.4-0.2c-0.2-0.2-0.3-0.4-0.3-0.7
		c0-0.2,0.1-0.4,0.2-0.6c0.1-0.2,0.3-0.3,0.5-0.4c0.2-0.1,0.5-0.2,0.8-0.2c0.2,0,0.4,0,0.6,0.1c0.2,0,0.4,0.1,0.6,0.2
		c0.2,0.1,0.3,0.2,0.5,0.4l0.8-0.8c-0.3-0.4-0.7-0.6-1.1-0.8c-0.4-0.2-0.8-0.3-1.4-0.3c-0.5,0-1,0.1-1.4,0.3
		c-0.4,0.2-0.7,0.4-0.9,0.8c-0.2,0.3-0.3,0.7-0.3,1.2c0,0.6,0.2,1.1,0.6,1.5c0.3,0.3,0.8,0.5,1.5,0.6l0.9,0.1c0.2,0,0.4,0.1,0.5,0.1
		c0.1,0,0.2,0.1,0.3,0.2c0.2,0.2,0.3,0.4,0.3,0.7c0,0.4-0.1,0.6-0.4,0.8c-0.3,0.2-0.7,0.3-1.2,0.3c-0.3,0-0.5,0-0.8-0.1
		c-0.2,0-0.4-0.1-0.7-0.2c-0.2-0.1-0.4-0.3-0.6-0.4l-0.8,0.8c0.4,0.4,0.8,0.7,1.2,0.9c0.4,0.2,1,0.3,1.6,0.3c0.4,0,0.8,0,1.1-0.2
		c0.3-0.1,0.6-0.2,0.9-0.4c0.3-0.2,0.4-0.4,0.6-0.7c0.1-0.3,0.2-0.6,0.2-0.9C75.3,35,75.1,34.5,74.7,34.2z M62.2,32.7
		c0-0.3-0.1-0.6-0.2-0.9c-0.1-0.3-0.3-0.5-0.5-0.8c-0.5-0.5-1.2-0.8-1.9-0.8c-0.8,0-1.4,0.3-1.9,0.8c-0.2,0.2-0.3,0.4-0.4,0.6
		c-0.1,0.2-0.2,0.4-0.2,0.6c0,0.2-0.1,0.5-0.1,0.8c0,0.3,0,0.6,0,1.1c0,0.6,0,1.1,0,1.4c0,0.3,0.1,0.6,0.2,0.9
		c0.1,0.3,0.3,0.5,0.5,0.8c0.5,0.5,1.2,0.8,1.9,0.8c0.8,0,1.4-0.3,1.9-0.9c0.2-0.2,0.4-0.5,0.5-0.8c0.1-0.3,0.2-0.6,0.2-0.9
		c0-0.3,0-0.8,0-1.4C62.3,33.4,62.3,33,62.2,32.7z M61.1,35.2c0,0.3-0.1,0.5-0.1,0.7c-0.1,0.2-0.2,0.3-0.3,0.4
		c-0.3,0.3-0.6,0.4-1.1,0.4c-0.2,0-0.4,0-0.6-0.1c-0.2-0.1-0.3-0.2-0.5-0.3c-0.1-0.1-0.2-0.2-0.2-0.3c0-0.1-0.1-0.2-0.1-0.4
		c0-0.2,0-0.4-0.1-0.6c0-0.2,0-0.5,0-0.9c0-0.7,0-1.2,0.1-1.5c0.1-0.3,0.2-0.5,0.3-0.7c0.1-0.1,0.3-0.2,0.5-0.3
		c0.2-0.1,0.4-0.1,0.6-0.1c0.2,0,0.4,0,0.6,0.1c0.2,0.1,0.3,0.2,0.5,0.3c0.2,0.2,0.3,0.4,0.3,0.7c0.1,0.3,0.1,0.8,0.1,1.5
		C61.1,34.5,61.1,34.9,61.1,35.2z M49.7,31.6c-0.1-0.3-0.3-0.5-0.4-0.7c-0.2-0.2-0.4-0.4-0.7-0.5c-0.3-0.1-0.6-0.2-0.9-0.2h-2.5v7.7
		h1.2v-3h1.5c0.4,0,0.8-0.1,1.1-0.3c0.3-0.2,0.6-0.5,0.7-0.9c0.2-0.4,0.3-0.8,0.3-1.2C49.8,32.2,49.8,31.9,49.7,31.6z M48.4,33.5
		c-0.2,0.2-0.4,0.3-0.8,0.3h-1.3v-2.4h1.3c0.3,0,0.6,0.1,0.8,0.3c0.2,0.2,0.3,0.5,0.3,0.9C48.7,33,48.6,33.3,48.4,33.5z M28.4,34.2
		c-0.2-0.1-0.4-0.2-0.6-0.3c-0.2-0.1-0.5-0.1-0.9-0.2l-0.9-0.1c-0.2,0-0.3-0.1-0.5-0.1c-0.2-0.1-0.3-0.1-0.4-0.2
		c-0.2-0.2-0.3-0.4-0.3-0.7c0-0.2,0.1-0.4,0.2-0.6c0.1-0.2,0.3-0.3,0.5-0.4c0.2-0.1,0.5-0.2,0.8-0.2c0.2,0,0.4,0,0.6,0.1
		c0.2,0,0.4,0.1,0.5,0.2c0.2,0.1,0.3,0.2,0.5,0.4l0.8-0.8c-0.3-0.4-0.7-0.6-1.1-0.8c-0.4-0.2-0.8-0.3-1.3-0.3c-0.5,0-1,0.1-1.4,0.3
		c-0.4,0.2-0.7,0.4-0.9,0.8c-0.2,0.3-0.3,0.7-0.3,1.2c0,0.6,0.2,1.1,0.6,1.5c0.3,0.3,0.8,0.5,1.5,0.6l0.9,0.1c0.2,0,0.4,0.1,0.5,0.1
		c0.1,0,0.2,0.1,0.3,0.2c0.2,0.2,0.3,0.4,0.3,0.7c0,0.4-0.2,0.6-0.4,0.8c-0.3,0.2-0.7,0.3-1.2,0.3c-0.3,0-0.5,0-0.8-0.1
		c-0.2,0-0.4-0.1-0.7-0.2c-0.2-0.1-0.4-0.3-0.6-0.4l-0.8,0.8c0.4,0.4,0.8,0.7,1.2,0.9c0.4,0.2,0.9,0.3,1.5,0.3c0.4,0,0.8,0,1.1-0.2
		c0.3-0.1,0.6-0.2,0.9-0.4c0.3-0.2,0.4-0.4,0.6-0.7c0.1-0.3,0.2-0.6,0.2-0.9C29,35,28.8,34.5,28.4,34.2z M14.4,30.2h-0.9l-2.8,7.7
		h1.2l0.5-1.2h3l0.5,1.2h1.2L14.4,30.2z M12.8,35.6l1.2-3.5l1.1,3.5H12.8z M4.4,36.8H1.2v-6.5H0v7.7h4.4V36.8z"/>
	<g>
		<polygon class="st0" points="199,13.7 199,18.5 213.6,27.4 215.5,23.2 222,9 224.8,2.8 221,0.4 220.9,0.4 220.8,0.4 		"/>
		<polygon class="st0" points="212.5,35.4 217,38.2 217.1,38.2 217.1,38.2 239,24.8 239,20.1 223.8,10.8 		"/>
	</g>
</g>
</svg>
